<svg width="96" height="19" viewBox="0 0 96 19" fill="none" xmlns="http://www.w3.org/2000/svg">
<rect width="96" height="19" fill="#E5E5E5"/>
<g clip-path="url(#clip0_0_1)">
<rect width="1254" height="2353" transform="translate(-1158 -2123)" fill="#24204A"/>
<rect x="-1158" y="-139.114" width="1287" height="310.719" fill="#071341"/>
<path d="M13.9359 16.1422C13.9359 16.1422 14.3791 16.099 14.6061 15.8855C14.8138 15.6898 14.8066 15.3205 14.8066 15.3205C14.8066 15.3205 14.779 13.5962 15.693 13.3416C16.5939 13.0912 17.7505 15.0091 18.978 15.7466C19.9053 16.3042 20.6091 16.1822 20.6091 16.1822L23.8893 16.1422C23.8893 16.1422 25.6044 16.0496 24.7913 14.8681C24.724 14.7713 24.3169 13.9939 22.3531 12.3969C20.2956 10.7251 20.5719 10.9955 23.0485 8.1034C24.5571 6.34226 25.16 5.26706 24.9714 4.80731C24.7925 4.36755 23.6827 4.48432 23.6827 4.48432L19.9905 4.50431C19.9905 4.50431 19.7167 4.4717 19.5137 4.57796C19.3155 4.68211 19.187 4.92514 19.187 4.92514C19.187 4.92514 18.6033 6.28755 17.8238 7.44692C16.1795 9.8919 15.5225 10.0213 15.2534 9.86981C14.6277 9.51526 14.7838 8.44743 14.7838 7.68889C14.7838 5.31861 15.1946 4.33072 13.9851 4.07507C13.5839 3.98986 13.2885 3.9341 12.2615 3.92463C10.9439 3.91306 9.82934 3.92884 9.19756 4.19922C8.77718 4.37912 8.45289 4.781 8.65107 4.80415C8.89489 4.83256 9.44739 4.9346 9.74046 5.28389C10.1188 5.73522 10.1056 6.7473 10.1056 6.7473C10.1056 6.7473 10.323 9.53736 9.59753 9.88348C9.10028 10.1213 8.41806 9.63625 6.95153 7.41746C6.20085 6.28124 5.63394 5.02508 5.63394 5.02508C5.63394 5.02508 5.52464 4.79047 5.32886 4.66423C5.09225 4.51168 4.76195 4.46434 4.76195 4.46434L1.25357 4.48432C1.25357 4.48432 0.726296 4.49695 0.532921 4.69789C0.361166 4.87569 0.519709 5.24496 0.519709 5.24496C0.519709 5.24496 3.2666 10.8745 6.37741 13.7119C9.22999 16.3126 12.4681 16.1422 12.4681 16.1422H13.9359Z" fill="white"/>
<path fill-rule="evenodd" clip-rule="evenodd" d="M41.0255 9.32617C41.0255 4.78471 45.2164 1.08997 50.3677 1.08997C55.5191 1.08997 59.71 4.78471 59.71 9.32617C59.71 9.96955 59.6493 10.4904 59.5132 11.0132L59.5112 11.0218C59.5109 11.0234 59.4434 11.2643 59.4061 11.3695C59.1752 12.0205 58.7572 12.5628 58.1971 12.9375C57.654 13.3011 56.9806 13.5013 56.301 13.5013C56.217 13.5013 56.1325 13.4983 56.0497 13.4924C55.0846 13.4241 54.236 12.9764 53.7157 12.2625C52.8207 13.0558 51.6333 13.4923 50.3677 13.4923C47.7621 13.4923 45.6423 11.6234 45.6423 9.32617C45.6423 7.02901 47.7621 5.16016 50.3677 5.16016C52.9734 5.16016 55.0932 7.02901 55.0932 9.32617V10.6691C55.0971 11.4527 55.6936 11.773 56.2031 11.8093C56.7101 11.8438 57.3848 11.5834 57.6198 10.7337C57.7357 10.2677 57.7946 9.79403 57.7946 9.32617C57.7946 5.71578 54.4629 2.77855 50.3677 2.77855C46.2725 2.77855 42.9409 5.71578 42.9409 9.32617C42.9409 12.9366 46.2725 15.8738 50.3677 15.8738C51.7933 15.8738 53.1797 15.5149 54.377 14.8358L54.3985 14.8236L55.657 16.1136L55.6301 16.1299C54.0747 17.0671 52.255 17.5625 50.3677 17.5625C45.2164 17.5625 41.0255 13.8677 41.0255 9.32617ZM50.3677 11.8037C51.9172 11.8037 53.1778 10.6923 53.1778 9.32622C53.1778 7.96018 51.9172 6.84884 50.3677 6.84884C48.8182 6.84884 47.5576 7.96018 47.5576 9.32622C47.5576 10.6923 48.8182 11.8037 50.3677 11.8037Z" fill="white"/>
<path d="M85.9833 6.74451L86.0267 7.35694L85.3032 7.28195C82.6697 6.99448 80.369 6.01959 78.4156 4.38228L77.4606 3.56987L77.2146 4.1698C76.6937 5.50715 77.0265 6.91949 78.1117 7.86939C78.6905 8.39433 78.5603 8.46932 77.5619 8.15686C77.2146 8.05687 76.9107 7.98187 76.8818 8.01937C76.7805 8.10686 77.1278 9.24423 77.4027 9.69418C77.7789 10.3191 78.5458 10.9315 79.3851 11.294L80.0941 11.5815L79.2548 11.594C78.4445 11.594 78.4156 11.6065 78.5024 11.8689C78.7918 12.6813 79.9349 13.5438 81.2083 13.9187L82.1054 14.1812L81.324 14.5811C80.1664 15.1561 78.8063 15.481 77.4461 15.506C76.795 15.5185 76.2596 15.5685 76.2596 15.606C76.2596 15.731 78.0249 16.4309 79.0523 16.7059C82.1343 17.5183 85.7952 17.1684 88.5445 15.781C90.4979 14.7936 92.4513 12.8313 93.3629 10.9315C93.8549 9.91916 94.3469 8.06937 94.3469 7.18196C94.3469 6.60703 94.3903 6.53204 95.2006 5.84461C95.6781 5.44466 96.1267 5.00721 96.2135 4.88222C96.3582 4.64475 96.3437 4.64475 95.6058 4.85722C94.3758 5.23218 94.2022 5.18219 94.8099 4.61975C95.2585 4.21979 95.7939 3.49488 95.7939 3.2824C95.7939 3.2449 95.5768 3.3074 95.3308 3.41988C95.0704 3.54487 94.4916 3.73235 94.0575 3.84484L93.2761 4.05731L92.5671 3.64486C92.1764 3.41988 91.6266 3.16991 91.3372 3.09492C90.5992 2.91994 89.4706 2.94494 88.8049 3.14491C86.9962 3.70735 85.8531 5.15719 85.9833 6.74451Z" fill="white"/>
</g>
<defs>
<clipPath id="clip0_0_1">
<rect width="1254" height="2353" fill="white" transform="translate(-1158 -2123)"/>
</clipPath>
</defs>
</svg>
