<svg width="13" height="7" viewBox="0 0 13 7" fill="none" xmlns="http://www.w3.org/2000/svg">
<path id="Vector" opacity="0.6" d="M10.6338 0.463321L6.55577 4.35702L2.47778 0.463322C2.38047 0.370413 2.26495 0.296714 2.13782 0.246432C2.01068 0.196151 1.87442 0.17027 1.73681 0.17027C1.59919 0.17027 1.46293 0.196151 1.33579 0.246432C1.20866 0.296714 1.09314 0.370413 0.995829 0.463322C0.898523 0.556231 0.821336 0.66653 0.768674 0.787921C0.716013 0.909312 0.688909 1.03942 0.688909 1.17081C0.688909 1.3022 0.716013 1.43231 0.768674 1.5537C0.821336 1.67509 0.898523 1.78539 0.995829 1.8783L5.82005 6.48451C5.91729 6.57754 6.03278 6.65135 6.15993 6.70171C6.28708 6.75206 6.42338 6.77799 6.56103 6.77799C6.69868 6.77799 6.83498 6.75206 6.96213 6.7017C7.08927 6.65135 7.20477 6.57754 7.302 6.48451L12.1262 1.8783C12.2237 1.78546 12.301 1.67518 12.3537 1.55378C12.4064 1.43238 12.4336 1.30224 12.4336 1.17081C12.4336 1.03938 12.4064 0.909239 12.3537 0.787839C12.301 0.666438 12.2237 0.556161 12.1262 0.463321C11.7163 0.0819793 11.0437 0.0719443 10.6338 0.463321Z" fill="white"/>
</svg>
