<svg width="31" height="30" viewBox="0 0 31 30" fill="none" xmlns="http://www.w3.org/2000/svg">
<path d="M15.524 10.1388C14.9037 10.1371 14.2892 10.2577 13.7158 10.4937C13.1424 10.7297 12.6214 11.0765 12.1828 11.514C11.7443 11.9516 11.3968 12.4713 11.1604 13.0433C10.9239 13.6153 10.8032 14.2283 10.8052 14.847C10.8034 15.4656 10.9243 16.0783 11.1608 16.6501C11.3974 17.2218 11.7449 17.7413 12.1835 18.1786C12.622 18.6159 13.1429 18.9624 13.7162 19.1981C14.2895 19.4339 14.9039 19.5543 15.524 19.5523C16.144 19.5541 16.7582 19.4336 17.3313 19.1977C17.9045 18.9619 18.4252 18.6153 18.8636 18.1781C19.302 17.7408 19.6494 17.2214 19.8859 16.6497C20.1223 16.0781 20.2431 15.4654 20.2414 14.847C20.2435 14.2284 20.123 13.6154 19.8867 13.0434C19.6504 12.4714 19.3031 11.9517 18.8646 11.5141C18.4262 11.0765 17.9053 10.7297 17.332 10.4937C16.7587 10.2577 16.1442 10.1371 15.524 10.1388ZM15.524 17.8608C14.7223 17.8608 13.9533 17.5432 13.3864 16.9777C12.8195 16.4122 12.501 15.6453 12.501 14.8456C12.501 14.0459 12.8195 13.2789 13.3864 12.7135C13.9533 12.148 14.7223 11.8303 15.524 11.8303C16.3258 11.8303 17.0947 12.148 17.6616 12.7135C18.2285 13.2789 18.547 14.0459 18.547 14.8456C18.547 15.6453 18.2285 16.4122 17.6616 16.9777C17.0947 17.5432 16.3258 17.8608 15.524 17.8608ZM22.8972 7.4957C22.4371 7.03679 21.5951 7.13093 21.02 7.70456C20.4449 8.27967 20.352 9.11511 20.8121 9.57549C21.2721 10.0359 22.1127 9.94321 22.6893 9.3681C23.2644 8.79447 23.3573 7.95461 22.8972 7.4957ZM8.36021 20.3348C7.78363 20.9084 7.69073 21.7454 8.15081 22.2043C8.6109 22.6632 9.45145 22.572 10.028 21.9969C10.6046 21.4218 10.6975 20.5834 10.2374 20.1245C9.77734 19.6656 8.93532 19.7597 8.36021 20.3348ZM8.15081 7.4957C7.69073 7.95461 7.78363 8.79447 8.35874 9.3681C8.93532 9.94321 9.77587 10.0344 10.236 9.57549C10.696 9.11658 10.6031 8.27673 10.0266 7.70309C9.45292 7.13093 8.6109 7.03679 8.15081 7.4957ZM21.02 21.9939C21.5951 22.569 22.4356 22.6632 22.8972 22.2043C23.3588 21.7454 23.2644 20.9055 22.6878 20.3304C22.1112 19.7553 21.2721 19.6641 20.8106 20.123C20.349 20.5819 20.4449 21.4203 21.02 21.9939ZM15.524 7.49276C16.1743 7.49276 16.7037 6.83528 16.7037 6.0219C16.7022 5.20852 16.1743 4.55399 15.524 4.55399C14.8722 4.55399 14.3428 5.20852 14.3428 6.0219C14.3428 6.83528 14.8707 7.49276 15.524 7.49276ZM15.524 25.146C16.1743 25.146 16.7037 24.4885 16.7037 23.6751C16.7037 22.8617 16.1758 22.2072 15.5255 22.2072C14.8737 22.2072 14.3443 22.8617 14.3443 23.6751C14.3428 24.4885 14.8707 25.146 15.524 25.146ZM8.15081 14.85C8.15081 14.2013 7.48723 13.6733 6.67175 13.6733C5.85628 13.6733 5.20154 14.2013 5.20154 14.85C5.20154 15.5001 5.85628 16.0267 6.67175 16.0267C7.48723 16.0267 8.15081 15.5001 8.15081 14.85ZM25.8465 14.85C25.8465 14.2013 25.1858 13.6733 24.3704 13.6733C23.5549 13.6733 22.8972 14.2013 22.8972 14.85C22.8972 15.5001 23.5549 16.0267 24.3704 16.0267C25.1858 16.0267 25.8465 15.5001 25.8465 14.85Z" fill="white"/>
</svg>
